<svg id="visual" viewBox="0 0 900 300" width="900" height="300" xmlns="http://www.w3.org/2000/svg" xmlns:xlink="http://www.w3.org/1999/xlink" version="1.1"><rect x="0" y="0" width="900" height="300" fill="#FF0066"></rect><g transform="translate(462.76450823137907 140.11824056977588)"><path d="M105.3 -214.1C129 -168.8 135.5 -125.4 158.8 -90C182 -54.7 222 -27.3 211.9 -5.9C201.7 15.6 141.5 31.3 118.9 67.8C96.3 104.3 111.4 161.7 97.9 210C84.3 258.4 42.2 297.7 -10.2 315.3C-62.5 332.9 -125 328.8 -171.2 299.3C-217.4 269.8 -247.3 214.9 -237 160.8C-226.8 106.7 -176.4 53.3 -168.6 4.5C-160.8 -44.3 -195.6 -88.7 -194.6 -123.3C-193.6 -157.9 -156.8 -182.9 -118.4 -219.7C-80 -256.6 -40 -305.3 0.4 -306C40.8 -306.7 81.7 -259.5 105.3 -214.1" fill="#BB004B"></path></g></svg>