<svg id="visual" viewBox="0 0 900 300" width="900" height="300" xmlns="http://www.w3.org/2000/svg"
    xmlns:xlink="http://www.w3.org/1999/xlink" version="1.1">
    <rect x="0" y="0" width="900" height="300" fill="#001220"></rect>
    <path
        d="M0 122L21.5 120.5C43 119 86 116 128.8 114.5C171.7 113 214.3 113 257.2 111.3C300 109.7 343 106.3 385.8 103.3C428.7 100.3 471.3 97.7 514.2 98.2C557 98.7 600 102.3 642.8 99.2C685.7 96 728.3 86 771.2 85.5C814 85 857 94 878.5 98.5L900 103L900 0L878.5 0C857 0 814 0 771.2 0C728.3 0 685.7 0 642.8 0C600 0 557 0 514.2 0C471.3 0 428.7 0 385.8 0C343 0 300 0 257.2 0C214.3 0 171.7 0 128.8 0C86 0 43 0 21.5 0L0 0Z"
        fill="#fa7268"></path>
    <path
        d="M0 73L21.5 74.3C43 75.7 86 78.3 128.8 82.2C171.7 86 214.3 91 257.2 89.7C300 88.3 343 80.7 385.8 80.5C428.7 80.3 471.3 87.7 514.2 91.3C557 95 600 95 642.8 94.3C685.7 93.7 728.3 92.3 771.2 87.8C814 83.3 857 75.7 878.5 71.8L900 68L900 0L878.5 0C857 0 814 0 771.2 0C728.3 0 685.7 0 642.8 0C600 0 557 0 514.2 0C471.3 0 428.7 0 385.8 0C343 0 300 0 257.2 0C214.3 0 171.7 0 128.8 0C86 0 43 0 21.5 0L0 0Z"
        fill="#ef5f67"></path>
    <path
        d="M0 61L21.5 59.3C43 57.7 86 54.3 128.8 55.5C171.7 56.7 214.3 62.3 257.2 61.5C300 60.7 343 53.3 385.8 51.3C428.7 49.3 471.3 52.7 514.2 57C557 61.3 600 66.7 642.8 66.7C685.7 66.7 728.3 61.3 771.2 57.7C814 54 857 52 878.5 51L900 50L900 0L878.5 0C857 0 814 0 771.2 0C728.3 0 685.7 0 642.8 0C600 0 557 0 514.2 0C471.3 0 428.7 0 385.8 0C343 0 300 0 257.2 0C214.3 0 171.7 0 128.8 0C86 0 43 0 21.5 0L0 0Z"
        fill="#e34c67"></path>
    <path
        d="M0 52L21.5 50.2C43 48.3 86 44.7 128.8 44.7C171.7 44.7 214.3 48.3 257.2 46.8C300 45.3 343 38.7 385.8 39.3C428.7 40 471.3 48 514.2 48.5C557 49 600 42 642.8 39.8C685.7 37.7 728.3 40.3 771.2 43.2C814 46 857 49 878.5 50.5L900 52L900 0L878.5 0C857 0 814 0 771.2 0C728.3 0 685.7 0 642.8 0C600 0 557 0 514.2 0C471.3 0 428.7 0 385.8 0C343 0 300 0 257.2 0C214.3 0 171.7 0 128.8 0C86 0 43 0 21.5 0L0 0Z"
        fill="#d53867"></path>
    <path
        d="M0 23L21.5 24.5C43 26 86 29 128.8 28.7C171.7 28.3 214.3 24.7 257.2 21.5C300 18.3 343 15.7 385.8 18C428.7 20.3 471.3 27.7 514.2 30.3C557 33 600 31 642.8 30C685.7 29 728.3 29 771.2 26.5C814 24 857 19 878.5 16.5L900 14L900 0L878.5 0C857 0 814 0 771.2 0C728.3 0 685.7 0 642.8 0C600 0 557 0 514.2 0C471.3 0 428.7 0 385.8 0C343 0 300 0 257.2 0C214.3 0 171.7 0 128.8 0C86 0 43 0 21.5 0L0 0Z"
        fill="#c62368"></path>
</svg>